<?xml version="1.0" standalone="no"?>
<!DOCTYPE svg PUBLIC "-//W3C//DTD SVG 20010904//EN"
 "http://www.w3.org/TR/2001/REC-SVG-20010904/DTD/svg10.dtd">
<svg version="1.0" xmlns="http://www.w3.org/2000/svg"
 width="256.000000pt" height="256.000000pt" viewBox="0 0 256.000000 256.000000"
 preserveAspectRatio="xMidYMid meet">
<metadata>
Created by potrace 1.16, written by Peter Selinger 2001-2019
</metadata>
<g transform="translate(0.000000,256.000000) scale(0.100000,-0.100000)"
fill="#000000" stroke="none">
<path d="M1971 2489 c-199 -61 -256 -323 -101 -462 75 -68 161 -90 253 -63
123 36 202 139 200 264 -1 105 -47 184 -140 239 -50 29 -153 40 -212 22z m162
-83 c41 -17 91 -74 107 -121 51 -156 -116 -305 -265 -236 -79 36 -115 95 -115
185 0 66 41 135 97 165 45 24 129 27 176 7z"/>
<path d="M2067 1885 c-22 -7 -50 -24 -64 -37 -47 -44 -56 -75 -57 -197 l-1
-115 -55 -21 c-30 -12 -116 -44 -190 -71 -84 -30 -147 -59 -168 -78 l-33 -29
-76 24 c-69 21 -76 22 -87 7 -12 -17 -256 -851 -256 -875 0 -17 35 -34 54 -27
18 7 21 15 146 454 56 195 105 358 108 361 4 4 27 1 52 -7 38 -12 48 -21 65
-57 23 -48 75 -87 116 -87 22 0 224 67 354 116 24 10 19 -97 -10 -218 -36
-150 -33 -195 35 -535 34 -164 63 -306 66 -316 12 -39 66 -87 116 -102 102
-30 198 22 229 125 10 34 5 72 -46 335 l-58 296 96 97 c129 132 125 112 92
471 -23 254 -29 292 -51 338 -32 66 -98 125 -165 146 -62 20 -160 21 -212 2z
m201 -81 c57 -23 101 -72 117 -129 7 -27 24 -166 36 -308 27 -306 31 -286 -95
-408 -46 -44 -87 -92 -90 -105 -4 -13 18 -152 49 -311 30 -158 55 -297 55
-309 0 -34 -46 -82 -84 -90 -34 -6 -81 11 -104 39 -6 7 -39 145 -72 307 -70
341 -73 392 -34 550 21 83 25 119 20 171 l-6 66 42 29 c53 37 215 252 223 298
9 47 -24 120 -67 146 -39 24 -98 26 -137 5 -16 -8 -45 -34 -66 -57 l-37 -43 5
53 c4 54 24 87 62 103 34 14 143 10 183 -7z m-34 -136 c9 -12 16 -31 16 -41 0
-26 -142 -220 -184 -252 -35 -27 -403 -165 -439 -165 -50 0 -76 70 -39 103 10
9 101 46 202 82 102 37 191 72 198 77 7 6 38 48 69 92 31 45 65 91 76 104 28
30 80 30 101 0z"/>
<path d="M393 1668 c-14 -18 -313 -989 -313 -1016 0 -11 5 -24 12 -28 31 -19
774 -212 788 -204 9 5 69 193 163 511 124 420 146 505 134 516 -7 7 -80 34
-162 59 -83 25 -245 74 -361 110 -221 67 -245 72 -261 52z m703 -270 c2 -3
-255 -888 -261 -895 -2 -3 -666 175 -669 179 -2 2 264 865 278 904 3 7 119
-24 326 -87 177 -54 324 -99 326 -101z"/>
<path d="M1459 939 c-44 -44 37 -85 166 -83 78 1 115 15 115 43 0 32 -23 41
-91 35 -41 -3 -83 0 -118 9 -50 14 -55 13 -72 -4z"/>
<path d="M50 525 c-20 -24 -2 -54 38 -64 312 -84 692 -181 709 -181 16 0 25 8
29 26 4 14 2 30 -2 34 -9 9 -725 200 -749 200 -7 0 -18 -7 -25 -15z"/>
<path d="M948 401 c-90 -57 -113 -174 -52 -262 68 -99 225 -103 297 -8 31 42
40 71 39 126 -3 139 -163 221 -284 144z m165 -71 c81 -64 37 -190 -66 -190
-31 0 -46 7 -73 34 -49 49 -45 114 10 158 29 24 97 23 129 -2z"/>
</g>
</svg>
